<?xml version="1.0" encoding="UTF-8"?>
<svg xmlns="http://www.w3.org/2000/svg" xmlns:xlink="http://www.w3.org/1999/xlink" width="300px" height="300px" viewBox="0 0 2239 500" version="1.1">
<g id="surface1">
<path style=" stroke:none;fill-rule:nonzero;fill:rgb(0%,4.313725%,46.27451%);fill-opacity:1;" d="M 0 350 L 93.292969 300 C 186.582031 250 373.167969 150 559.75 100 C 746.332031 50 932.917969 50 1119.5 125 C 1306.082031 200 1492.667969 350 1679.25 358.28125 C 1865.832031 367.1875 2052.417969 232.8125 2145.707031 166.71875 L 2239 100 L 2239 500 L 2145.707031 500 C 2052.417969 500 1865.832031 500 1679.25 500 C 1492.667969 500 1306.082031 500 1119.5 500 C 932.917969 500 746.332031 500 559.75 500 C 373.167969 500 186.582031 500 93.292969 500 L 0 500 Z M 0 350 "/>
</g>
</svg>
